<?xml version="1.0" encoding="UTF-8" standalone="no"?>
<svg
   xmlns:dc="http://purl.org/dc/elements/1.1/"
   xmlns:cc="http://creativecommons.org/ns#"
   xmlns:rdf="http://www.w3.org/1999/02/22-rdf-syntax-ns#"
   xmlns:svg="http://www.w3.org/2000/svg"
   xmlns="http://www.w3.org/2000/svg"
   xmlns:sodipodi="http://sodipodi.sourceforge.net/DTD/sodipodi-0.dtd"
   xmlns:inkscape="http://www.inkscape.org/namespaces/inkscape"
   width="793.70081"
   height="792"
   viewBox="0 0 210 209.55"
   version="1.1"
   id="svg8"
   inkscape:version="1.0.2-2 (e86c870879, 2021-01-15)"
   sodipodi:docname="logo.svg">
  <defs
     id="defs2">
    <rect
       x="83.388092"
       y="134.1693"
       width="0.53453904"
       height="10.690781"
       id="rect867" />
    <rect
       x="272.08038"
       y="122.40944"
       width="167.84526"
       height="32.072342"
       id="rect861" />
  </defs>
  <sodipodi:namedview
     id="base"
     pagecolor="#ffffff"
     bordercolor="#666666"
     borderopacity="1.0"
     inkscape:pageopacity="0.0"
     inkscape:pageshadow="2"
     inkscape:zoom="0.49497475"
     inkscape:cx="710.7944"
     inkscape:cy="698.59474"
     inkscape:document-units="px"
     inkscape:current-layer="path833"
     inkscape:document-rotation="0"
     showgrid="false"
     showborder="true"
     inkscape:window-width="1920"
     inkscape:window-height="1057"
     inkscape:window-x="-8"
     inkscape:window-y="-8"
     inkscape:window-maximized="1"
     units="px" />
  <metadata
     id="metadata5">
    <rdf:RDF>
      <cc:Work
         rdf:about="">
        <dc:format>image/svg+xml</dc:format>
        <dc:type
           rdf:resource="http://purl.org/dc/dcmitype/StillImage" />
        <dc:title></dc:title>
      </cc:Work>
    </rdf:RDF>
  </metadata>
  <g
     inkscape:label="Sloj 1"
     inkscape:groupmode="layer"
     id="layer1">
    <g
       id="path833"
       style="opacity:0.496774">
      <path
         style="color:#000000;font-style:normal;font-variant:normal;font-weight:normal;font-stretch:normal;font-size:medium;line-height:normal;font-family:sans-serif;font-variant-ligatures:normal;font-variant-position:normal;font-variant-caps:normal;font-variant-numeric:normal;font-variant-alternates:normal;font-variant-east-asian:normal;font-feature-settings:normal;font-variation-settings:normal;text-indent:0;text-align:start;text-decoration:none;text-decoration-line:none;text-decoration-style:solid;text-decoration-color:#000000;letter-spacing:normal;word-spacing:normal;text-transform:none;writing-mode:lr-tb;direction:ltr;text-orientation:mixed;dominant-baseline:auto;baseline-shift:baseline;text-anchor:start;white-space:normal;shape-padding:0;shape-margin:0;inline-size:0;clip-rule:nonzero;display:inline;overflow:visible;visibility:visible;isolation:auto;mix-blend-mode:normal;color-interpolation:sRGB;color-interpolation-filters:linearRGB;solid-color:#000000;solid-opacity:1;vector-effect:none;fill:#999999;fill-opacity:1;fill-rule:nonzero;stroke:none;stroke-width:16.3341;stroke-linecap:butt;stroke-linejoin:miter;stroke-miterlimit:4;stroke-dasharray:none;stroke-dashoffset:0;stroke-opacity:1;color-rendering:auto;image-rendering:auto;shape-rendering:auto;text-rendering:auto;enable-background:accumulate;stop-color:#000000;stop-opacity:1"
         d="M 107.62458,17.119961 C 72.803902,17.134961 38.654825,26.73365 8.8963019,44.870696 9.975949,113.20003 47.386793,175.73764 106.98571,208.84126 c 58.59003,-34.17492 94.63796,-97.03013 94.63826,-165.016611 -5e-5,-0.613867 -0.003,-1.227731 -0.009,-1.841569 -28.63214,-16.29646 -60.98908,-24.863201 -93.90906,-24.863119 0,0 -0.0818,0 -0.0818,0 z"
         id="path855" />
      <path
         style="color:#000000;font-style:normal;font-variant:normal;font-weight:normal;font-stretch:normal;font-size:medium;line-height:normal;font-family:sans-serif;font-variant-ligatures:normal;font-variant-position:normal;font-variant-caps:normal;font-variant-numeric:normal;font-variant-alternates:normal;font-variant-east-asian:normal;font-feature-settings:normal;font-variation-settings:normal;text-indent:0;text-align:start;text-decoration:none;text-decoration-line:none;text-decoration-style:solid;text-decoration-color:#000000;letter-spacing:normal;word-spacing:normal;text-transform:none;writing-mode:lr-tb;direction:ltr;text-orientation:mixed;dominant-baseline:auto;baseline-shift:baseline;text-anchor:start;white-space:normal;shape-padding:0;shape-margin:0;inline-size:0;clip-rule:nonzero;display:inline;overflow:visible;visibility:visible;isolation:auto;mix-blend-mode:normal;color-interpolation:sRGB;color-interpolation-filters:linearRGB;solid-color:#000000;solid-opacity:1;vector-effect:none;fill:#000000;fill-opacity:1;fill-rule:nonzero;stroke:none;stroke-linecap:butt;stroke-linejoin:miter;stroke-miterlimit:4;stroke-dasharray:none;stroke-dashoffset:0;stroke-opacity:1;color-rendering:auto;image-rendering:auto;shape-rendering:auto;text-rendering:auto;enable-background:accumulate;stop-color:#000000;stop-opacity:1"
         d="M 107.52282,0.61443803 C 71.203554,0.63008403 35.584232,10.64215 4.5482109,29.557798 l -3.99023435,2.43164 0.0742188,4.671875 C 1.757683,107.89184 40.773697,173.12255 102.92126,207.64178 l 4.06445,2.25782 4.01758,-2.3418 c 61.09533,-35.63623 98.68914,-101.1989 98.68945,-172.072268 -5e-5,-0.64005 -0.004,-1.279902 -0.01,-1.919922 l -0.0449,-4.695312 -4.08204,-2.324219 C 175.69436,9.549813 141.94367,0.61435303 107.60681,0.61443803 h -0.0801 V 16.948423 h 0.004 0.0762 0.002 c 29.91149,-7.5e-5 59.29791,7.473445 85.65039,21.570312 C 192.22779,100.85578 159.60442,158.24485 106.78845,190.92303 53.509189,159.48905 19.789146,103.13466 17.198601,41.167173 44.693065,25.382878 75.796249,16.962775 107.52673,16.948423 Z"
         id="path857" />
      <text
         xml:space="preserve"
         id="text865"
         style="font-style:normal;font-weight:normal;font-size:10.5833px;line-height:1.25;font-family:sans-serif;white-space:pre;shape-inside:url(#rect867);fill:#000000;fill-opacity:1;stroke:none;"
         transform="translate(0.53453905,-33.141421)" />
      <rect
         style="opacity:0.496774;fill:none;stroke:none;stroke-width:15.875;stroke-miterlimit:4;stroke-dasharray:none"
         id="rect876"
         width="229.85179"
         height="63.610157"
         x="-9.0871639"
         y="52.384823"
         ry="2.8571825" />
      <path
         d="m 161.12151,57.833118 c 1.33276,0 2.41522,1.157488 2.41522,2.582199 v 2.63923 c 0,4.095342 -4.47292,5.107612 -7.80607,5.107612 l -5.2457,-10.329041 z m -6.96074,18.106711 c 3.08667,6.12518 4.56965,11.63041 4.56965,18.93299 0,7.075391 -1.91769,13.081671 -4.85465,20.559931 v 9.5389 c 0,2.8508 -2.16398,5.16444 -4.83038,5.16444 h -7.24575 c -2.66638,0 -4.83036,-2.31364 -4.83036,-5.16444 v -5.16461 H 74.173644 v 5.16461 c 0,2.8508 -2.164167,5.16444 -4.830571,5.16444 h -7.245559 c -2.666404,0 -4.830381,-2.31364 -4.830381,-5.16444 v -9.5389 c -2.936963,-7.47826 -4.854655,-13.48454 -4.854655,-20.559931 0,-7.30258 1.482464,-12.80781 4.569679,-18.93299 4.004426,-7.93772 8.941075,-17.832868 14.153198,-27.123871 3.999511,-7.137251 6.095937,-8.815726 11.003725,-9.755776 7.400183,-1.421008 14.095122,-1.885567 23.43239,-1.885567 9.33723,0 16.03217,0.464559 23.43237,1.885567 4.9078,0.940824 7.00422,2.618525 11.00374,9.755776 5.21212,9.291003 10.14874,19.186151 14.15319,27.123871 z m -77.571949,15.46245 c 0,-4.27611 -3.246048,-7.74663 -7.245748,-7.74663 -3.999511,0 -7.245559,3.47052 -7.245559,7.74663 0,4.27629 3.246048,7.74684 7.245559,7.74684 3.9997,0 7.245748,-3.47055 7.245748,-7.74684 z m 48.304339,5.16464 c 0,-1.42492 -1.08264,-2.58223 -2.41521,-2.58223 H 88.664951 c -1.332727,0 -2.415177,1.1575 -2.415177,2.58223 0,1.4249 1.082613,2.5822 2.415177,2.5822 h 33.812999 c 1.33276,0 2.41521,-1.1575 2.41521,-2.5822 z m 14.20633,-28.54414 c 0,0 -3.57453,-9.430371 -7.87837,-16.22681 -0.9749,-1.540068 -2.48767,-2.592746 -4.19776,-2.923226 -7.29869,-1.405384 -13.69425,-1.854321 -21.45189,-1.854321 -7.757685,0 -14.153205,0.448937 -21.451897,1.854321 -1.710668,0.325982 -3.221966,1.378079 -4.197795,2.923226 -4.303845,6.791167 -7.878336,16.22681 -7.878336,16.22681 7.921805,1.61623 20.814361,2.5666 33.528028,2.5666 12.71363,0 25.60621,-0.9506 33.52802,-2.5666 z m 9.9459,23.3795 c 0,-4.27611 -3.24605,-7.74663 -7.24575,-7.74663 -3.99951,0 -7.24556,3.47052 -7.24556,7.74663 0,4.27629 3.24605,7.74684 7.24556,7.74684 3.9997,0 7.24575,-3.47055 7.24575,-7.74684 z M 60.657976,57.833118 H 50.021384 c -1.332727,0 -2.415177,1.157488 -2.415177,2.582199 v 2.63923 c 0,4.095342 4.472913,5.107612 7.806061,5.107612 z"
         id="path1475"
         style="fill:#000000;stroke-width:4.99468" />
    </g>
  </g>
</svg>
